<svg width="64" height="64" viewBox="0 0 64 64" fill="none" xmlns="http://www.w3.org/2000/svg">
<g clip-path="url(#clip0_2_191)">
<path fill-rule="evenodd" clip-rule="evenodd" d="M55.4752 0.0185547C59.7366 0.0185547 63.1962 3.4783 63.1962 7.7396V55.4937C63.1962 59.7551 59.7365 63.2148 55.4752 63.2148H7.72105C3.45975 63.2148 0 59.7551 0 55.4937V7.7396C0 3.4783 3.45962 0.0185547 7.72105 0.0185547H55.4752V0.0185547ZM24.1329 52.4201C40.9119 52.4201 50.0864 38.5165 50.0864 26.4667C50.0864 26.0695 50.0864 25.6722 50.0675 25.2938C51.8456 24.0076 53.3967 22.3997 54.6264 20.5647C52.9995 21.2836 51.2403 21.7755 49.3865 22.0025C51.2782 20.8674 52.7158 19.0893 53.3968 16.9517C51.6376 17.9921 49.6892 18.7488 47.6084 19.1649C45.9437 17.3868 43.5791 16.2896 40.9498 16.2896C35.9179 16.2896 31.832 20.3756 31.832 25.4074C31.832 26.1263 31.9077 26.8261 32.0779 27.4882C24.4924 27.1099 17.777 23.4779 13.2749 17.9543C12.4993 19.2974 12.0453 20.8674 12.0453 22.5321C12.0453 25.6912 13.6532 28.4908 16.1123 30.1176C14.618 30.0797 13.2181 29.6636 11.9885 28.9826V29.0961C11.9885 33.5226 15.1287 37.1924 19.3093 38.0436C18.5527 38.2517 17.7393 38.3652 16.9068 38.3652C16.3204 38.3652 15.753 38.3084 15.1855 38.1949C16.3394 41.8269 19.7065 44.4562 23.6979 44.5319C20.5767 46.9722 16.6421 48.4287 12.367 48.4287C11.6292 48.4287 10.9104 48.391 10.1915 48.2963C14.1829 50.9068 18.9876 52.4201 24.1329 52.4201Z" fill="white"/>
</g>
<defs>
<clipPath id="clip0_2_191">
<rect width="63.1962" height="63.1962" fill="white" transform="translate(0 0.0185547)"/>
</clipPath>
</defs>
</svg>
